<?xml version="1.0" encoding="UTF-8"?>
<svg xmlns="http://www.w3.org/2000/svg" viewBox="0 0 250 250" width="250px" height="250px">
<g id="surface30878154">
<path style=" stroke:none;fill-rule:nonzero;fill:rgb(100%,100%,100%);fill-opacity:1;" d="M 171.09375 27.34375 C 141.191406 27.34375 116.875 51.660156 116.875 81.5625 C 116.875 83.359375 117.324219 85.117188 117.5 86.875 C 80.527344 83.339844 47.832031 65.527344 25.625 38.28125 C 24.589844 36.972656 22.988281 36.269531 21.308594 36.386719 C 19.648438 36.503906 18.164062 37.460938 17.34375 38.90625 C 12.675781 46.933594 10 56.171875 10 66.09375 C 10 78.105469 14.296875 89.101562 20.9375 98.125 C 19.648438 97.558594 18.242188 97.246094 17.03125 96.5625 C 15.488281 95.742188 13.632812 95.78125 12.128906 96.679688 C 10.625 97.578125 9.707031 99.199219 9.6875 100.9375 L 9.6875 101.5625 C 9.6875 119.980469 19.21875 135.976562 33.28125 145.78125 C 33.125 145.761719 32.96875 145.820312 32.8125 145.78125 C 31.09375 145.488281 29.355469 146.09375 28.203125 147.402344 C 27.050781 148.710938 26.679688 150.527344 27.1875 152.1875 C 32.773438 169.550781 47.03125 182.8125 64.6875 187.65625 C 50.625 196.015625 34.316406 200.9375 16.71875 200.9375 C 12.910156 200.9375 9.257812 200.742188 5.625 200.3125 C 3.28125 200 1.035156 201.367188 0.253906 203.59375 C -0.546875 205.820312 0.332031 208.300781 2.34375 209.53125 C 24.902344 224.003906 51.679688 232.5 80.46875 232.5 C 127.128906 232.5 163.730469 213.007812 188.28125 185.15625 C 212.832031 157.304688 225.625 121.132812 225.625 87.34375 C 225.625 85.917969 225.507812 84.53125 225.46875 83.125 C 234.628906 76.113281 242.8125 67.890625 249.21875 58.28125 C 250.488281 56.425781 250.351562 53.945312 248.886719 52.226562 C 247.441406 50.507812 245 49.980469 242.96875 50.9375 C 240.390625 52.089844 237.382812 52.207031 234.6875 53.125 C 238.242188 48.378906 241.289062 43.261719 243.125 37.5 C 243.75 35.527344 243.066406 33.359375 241.445312 32.070312 C 239.824219 30.800781 237.558594 30.644531 235.78125 31.71875 C 227.246094 36.777344 217.792969 40.332031 207.8125 42.5 C 198.125 33.4375 185.371094 27.34375 171.09375 27.34375 Z M 171.09375 37.34375 C 183.847656 37.34375 195.371094 42.792969 203.4375 51.40625 C 204.648438 52.65625 206.425781 53.183594 208.125 52.8125 C 214.648438 51.523438 220.839844 49.628906 226.875 47.1875 C 223.398438 51.875 219.101562 55.878906 214.0625 58.90625 C 211.777344 60.019531 210.703125 62.65625 211.542969 65.058594 C 212.363281 67.441406 214.863281 68.828125 217.34375 68.28125 C 222.34375 67.675781 226.796875 65.644531 231.5625 64.375 C 227.285156 69.003906 222.597656 73.183594 217.5 76.875 C 216.113281 77.890625 215.351562 79.53125 215.46875 81.25 C 215.546875 83.28125 215.625 85.292969 215.625 87.34375 C 215.625 118.59375 203.632812 152.519531 180.78125 178.4375 C 157.929688 204.355469 124.375 222.5 80.46875 222.5 C 60.527344 222.5 41.699219 218.085938 24.6875 210.3125 C 45.78125 208.691406 65.234375 201.230469 80.9375 188.90625 C 82.578125 187.597656 83.222656 185.410156 82.558594 183.417969 C 81.894531 181.425781 80.058594 180.058594 77.96875 180 C 61.484375 179.707031 47.675781 170.117188 40.3125 156.5625 C 40.585938 156.5625 40.820312 156.5625 41.09375 156.5625 C 46.035156 156.5625 50.917969 155.9375 55.46875 154.6875 C 57.65625 154.042969 59.160156 152.011719 59.082031 149.726562 C 59.003906 147.441406 57.382812 145.488281 55.15625 145 C 37.363281 141.40625 24.023438 126.914062 20.9375 108.90625 C 25.976562 110.644531 31.132812 112.011719 36.71875 112.1875 C 39.003906 112.324219 41.074219 110.898438 41.777344 108.730469 C 42.480469 106.5625 41.621094 104.179688 39.6875 102.96875 C 27.8125 95.019531 20 81.484375 20 66.09375 C 20 60.390625 21.484375 55.15625 23.4375 50.15625 C 48.4375 77.597656 83.4375 95.820312 122.96875 97.8125 C 124.53125 97.890625 126.054688 97.246094 127.070312 96.054688 C 128.085938 94.84375 128.476562 93.242188 128.125 91.71875 C 127.363281 88.476562 126.875 85.039062 126.875 81.5625 C 126.875 57.070312 146.601562 37.34375 171.09375 37.34375 Z M 171.09375 37.34375 "/>
</g>
</svg>
