<?xml version="1.0" encoding="UTF-8"?>
<svg xmlns="http://www.w3.org/2000/svg" viewBox="0 0 250 250" width="250px" height="250px">
<g id="surface30915353">
<path style=" stroke:none;fill-rule:nonzero;fill:rgb(100%,100%,100%);fill-opacity:1;" d="M 45 20 C 31.253906 20 20 31.253906 20 45 L 20 205 C 20 218.746094 31.253906 230 45 230 L 205 230 C 218.746094 230 230 218.746094 230 205 L 230 45 C 230 31.253906 218.746094 20 205 20 Z M 45 30 L 205 30 C 213.34375 30 220 36.65625 220 45 L 220 205 C 220 213.34375 213.34375 220 205 220 L 45 220 C 36.65625 220 30 213.34375 30 205 L 30 45 C 30 36.65625 36.65625 30 45 30 Z M 70 55.058594 C 64.523438 55.058594 59.597656 56.695312 55.949219 59.765625 C 52.296875 62.835938 50.058594 67.421875 50.058594 72.332031 C 50.058594 81.667969 58.15625 88.949219 68.457031 89.667969 C 68.464844 89.671875 68.46875 89.675781 68.476562 89.675781 C 68.96875 89.84375 69.480469 89.933594 70 89.941406 C 81.363281 89.941406 89.941406 81.980469 89.941406 72.332031 C 89.941406 72.246094 89.9375 72.15625 89.933594 72.070312 C 89.421875 62.570312 80.953125 55.058594 70 55.058594 Z M 70 64.941406 C 76.960938 64.941406 79.710938 68.050781 80.011719 72.460938 C 79.949219 76.742188 77.300781 80.058594 70 80.058594 C 63.074219 80.058594 59.941406 76.511719 59.941406 72.335938 C 59.941406 70.246094 60.703125 68.671875 62.304688 67.324219 C 63.90625 65.976562 66.476562 64.941406 70 64.941406 Z M 55 95 C 52.238281 95 50 97.238281 50 100 L 50 195 C 50 197.761719 52.238281 200 55 200 L 85 200 C 87.761719 200 90 197.761719 90 195 L 90 100 C 90 97.238281 87.761719 95 85 95 Z M 100 95 C 97.238281 95 95 97.238281 95 100 L 95 195 C 95 197.761719 97.238281 200 100 200 L 130 200 C 132.761719 200 135 197.761719 135 195 L 135 145 C 135 140.851562 136.132812 136.726562 138.125 134.023438 C 140.117188 131.320312 142.632812 129.699219 147.410156 129.785156 C 152.339844 129.871094 154.949219 131.558594 156.921875 134.210938 C 158.898438 136.859375 160 140.832031 160 145 L 160 195 C 160 197.761719 162.238281 200 165 200 L 195 200 C 197.761719 200 200 197.761719 200 195 L 200 141.308594 C 200 126.5 195.613281 114.773438 188.09375 106.835938 C 180.578125 98.898438 170.121094 95 159.0625 95 C 148.550781 95 140.554688 98.523438 135 102.121094 L 135 100 C 135 97.238281 132.761719 95 130 95 Z M 60 105 L 80 105 L 80 190 L 60 190 Z M 105 105 L 125 105 L 125 112.800781 C 125 114.953125 126.375 116.863281 128.414062 117.542969 C 130.453125 118.226562 132.699219 117.527344 133.992188 115.808594 C 133.992188 115.808594 141.847656 105 159.0625 105 C 167.828125 105 175.347656 107.914062 180.839844 113.710938 C 186.332031 119.507812 190 128.441406 190 141.308594 L 190 190 L 170 190 L 170 145 C 170 139.167969 168.601562 133.136719 164.949219 128.234375 C 161.300781 123.328125 155.160156 119.914062 147.585938 119.785156 C 139.976562 119.648438 133.738281 123.136719 130.078125 128.097656 C 126.417969 133.054688 125 139.148438 125 145 L 125 190 L 105 190 Z M 105 105 "/>
</g>
</svg>
