<?xml version="1.0" encoding="UTF-8"?>
<svg xmlns="http://www.w3.org/2000/svg" viewBox="0 0 250 250" width="250px" height="250px">
<g id="surface30883143">
<path style=" stroke:none;fill-rule:nonzero;fill:rgb(100%,100%,100%);fill-opacity:1;" d="M 80 15 C 44.164062 15 15 44.164062 15 80 L 15 170 C 15 205.835938 44.164062 235 80 235 L 170 235 C 205.835938 235 235 205.835938 235 170 L 235 80 C 235 44.164062 205.835938 15 170 15 Z M 80 25 L 170 25 C 200.433594 25 225 49.566406 225 80 L 225 170 C 225 200.433594 200.433594 225 170 225 L 80 225 C 49.566406 225 25 200.433594 25 170 L 25 80 C 25 49.566406 49.566406 25 80 25 Z M 185 55 C 179.476562 55 175 59.476562 175 65 C 175 70.523438 179.476562 75 185 75 C 190.523438 75 195 70.523438 195 65 C 195 59.476562 190.523438 55 185 55 Z M 125 70 C 94.683594 70 70 94.683594 70 125 C 70 155.316406 94.683594 180 125 180 C 155.316406 180 180 155.316406 180 125 C 180 94.683594 155.316406 70 125 70 Z M 125 80 C 149.910156 80 170 100.089844 170 125 C 170 149.910156 149.910156 170 125 170 C 100.089844 170 80 149.910156 80 125 C 80 100.089844 100.089844 80 125 80 Z M 125 80 "/>
</g>
</svg>
