<?xml version="1.0" encoding="UTF-8"?>
<svg xmlns="http://www.w3.org/2000/svg" viewBox="0 0 250 250" width="250px" height="250px">
<g id="surface30883870">
<path style=" stroke:none;fill-rule:nonzero;fill:rgb(100%,100%,100%);fill-opacity:1;" d="M 190.058594 20 C 187.871094 19.980469 185.917969 21.367188 185.234375 23.457031 L 160.371094 100 L 89.628906 100 L 64.765625 23.457031 C 64.101562 21.445312 62.246094 20.058594 60.117188 20 C 57.988281 19.960938 56.074219 21.25 55.3125 23.242188 L 25.351562 103.203125 C 25.332031 103.203125 25.332031 103.222656 25.3125 103.242188 L 10.3125 143.242188 C 9.53125 145.351562 10.234375 147.714844 12.070312 149.042969 L 122.03125 229.003906 L 122.050781 229.042969 C 122.070312 229.042969 122.070312 229.042969 122.070312 229.0625 C 122.128906 229.101562 122.207031 229.140625 122.265625 229.179688 C 122.34375 229.21875 122.402344 229.277344 122.480469 229.316406 C 122.5 229.316406 122.5 229.335938 122.519531 229.335938 C 122.519531 229.335938 122.539062 229.355469 122.558594 229.355469 C 122.578125 229.375 122.597656 229.394531 122.636719 229.394531 C 122.65625 229.414062 122.695312 229.433594 122.714844 229.453125 C 122.8125 229.492188 122.929688 229.550781 123.046875 229.589844 C 123.046875 229.589844 123.046875 229.589844 123.046875 229.609375 C 123.164062 229.648438 123.28125 229.6875 123.378906 229.726562 C 123.398438 229.726562 123.398438 229.726562 123.417969 229.746094 C 123.496094 229.765625 123.574219 229.785156 123.671875 229.824219 C 123.710938 229.824219 123.75 229.84375 123.808594 229.84375 C 123.808594 229.863281 123.808594 229.863281 123.808594 229.84375 C 123.90625 229.882812 124.003906 229.902344 124.101562 229.921875 C 124.238281 229.941406 124.355469 229.960938 124.492188 229.980469 C 124.6875 229.980469 124.902344 230 125.097656 230 C 125.292969 229.980469 125.46875 229.980469 125.644531 229.941406 C 125.722656 229.941406 125.78125 229.941406 125.859375 229.921875 C 125.859375 229.921875 125.878906 229.921875 125.898438 229.921875 C 125.9375 229.902344 125.957031 229.902344 125.996094 229.902344 C 126.015625 229.902344 126.035156 229.882812 126.074219 229.882812 C 126.113281 229.863281 126.171875 229.863281 126.210938 229.84375 C 126.289062 229.824219 126.347656 229.804688 126.40625 229.785156 C 126.445312 229.785156 126.464844 229.785156 126.484375 229.765625 C 126.503906 229.765625 126.523438 229.765625 126.542969 229.765625 C 126.621094 229.726562 126.71875 229.6875 126.796875 229.667969 C 126.894531 229.628906 126.972656 229.589844 127.050781 229.550781 C 127.070312 229.550781 127.070312 229.550781 127.089844 229.53125 C 127.109375 229.53125 127.128906 229.53125 127.148438 229.511719 C 127.1875 229.492188 127.226562 229.472656 127.265625 229.453125 C 127.382812 229.394531 127.480469 229.335938 127.578125 229.277344 C 127.617188 229.257812 127.636719 229.238281 127.65625 229.21875 C 127.675781 229.21875 127.695312 229.199219 127.714844 229.199219 C 127.792969 229.140625 127.871094 229.101562 127.949219 229.042969 L 127.988281 228.984375 L 237.949219 149.042969 C 239.765625 147.714844 240.46875 145.351562 239.6875 143.242188 L 224.726562 103.378906 C 224.707031 103.339844 224.6875 103.28125 224.6875 103.242188 L 194.6875 23.242188 C 193.945312 21.308594 192.128906 20.019531 190.058594 20 Z M 59.667969 40.136719 L 79.121094 100 L 37.226562 100 Z M 190.332031 40.136719 L 212.792969 100 L 170.878906 100 Z M 40.332031 110 L 82.363281 110 L 111.640625 200.078125 Z M 92.890625 110 L 157.109375 110 L 125 208.828125 Z M 167.636719 110 L 209.667969 110 L 138.359375 200.078125 Z M 31.5625 115.039062 L 98.4375 199.511719 L 21.015625 143.203125 Z M 218.4375 115.039062 L 228.984375 143.203125 L 151.5625 199.511719 Z M 218.4375 115.039062 "/>
</g>
</svg>
