<?xml version="1.0" encoding="UTF-8"?>
<svg xmlns="http://www.w3.org/2000/svg" viewBox="0 0 250 250" width="250px" height="250px">
<g id="surface30915721">
<path style=" stroke:none;fill-rule:nonzero;fill:rgb(100%,100%,100%);fill-opacity:1;" d="M 125 15 C 64.308594 15 15 64.308594 15 125 C 15 180.09375 55.636719 225.691406 108.566406 233.644531 L 114.308594 234.511719 L 114.308594 147.832031 L 88.320312 147.832031 L 88.320312 130.234375 L 114.308594 130.234375 L 114.308594 106.863281 C 114.308594 92.476562 117.761719 82.996094 123.476562 77.050781 C 129.191406 71.105469 137.640625 68.105469 149.394531 68.105469 C 158.792969 68.105469 162.449219 68.675781 165.925781 69.101562 L 165.925781 83.503906 L 153.691406 83.503906 C 146.75 83.503906 141.050781 87.378906 138.09375 92.539062 C 135.140625 97.699219 134.21875 103.859375 134.21875 110.136719 L 134.21875 130.222656 L 164.832031 130.222656 L 162.109375 147.824219 L 134.21875 147.824219 L 134.21875 234.648438 L 139.890625 233.878906 C 193.570312 226.597656 235 180.632812 235 125 C 235 64.308594 185.691406 15 125 15 Z M 125 25 C 180.289062 25 225 69.710938 225 125 C 225 173.648438 190.179688 213.660156 144.21875 222.667969 L 144.21875 157.824219 L 170.683594 157.824219 L 176.492188 120.222656 L 144.21875 120.222656 L 144.21875 110.136719 C 144.21875 104.949219 145.167969 100.300781 146.765625 97.507812 C 148.367188 94.71875 149.910156 93.503906 153.691406 93.503906 L 175.925781 93.503906 L 175.925781 60.046875 L 171.589844 59.460938 C 168.59375 59.058594 161.746094 58.105469 149.394531 58.105469 C 135.878906 58.105469 124.277344 61.789062 116.269531 70.117188 C 108.261719 78.445312 104.304688 90.851562 104.304688 106.863281 L 104.304688 120.234375 L 78.320312 120.234375 L 78.320312 157.832031 L 104.304688 157.832031 L 104.304688 222.351562 C 59.085938 212.773438 25 173.121094 25 125 C 25 69.710938 69.710938 25 125 25 Z M 125 25 "/>
</g>
</svg>
