<?xml version="1.0" encoding="UTF-8"?>
<svg xmlns="http://www.w3.org/2000/svg" viewBox="0 0 250 250" width="250px" height="250px">
<g id="surface30915048">
<path style=" stroke:none;fill-rule:nonzero;fill:rgb(100%,100%,100%);fill-opacity:1;" d="M 125 10 C 61.558594 10 10 61.558594 10 125 C 10 188.441406 61.558594 240 125 240 C 188.441406 240 240 188.441406 240 125 C 240 61.558594 188.441406 10 125 10 Z M 125 20 C 183.035156 20 230 66.964844 230 125 C 230 125.355469 229.972656 125.707031 229.972656 126.066406 C 226.773438 125.769531 223.078125 125.488281 218.378906 125.324219 C 211.734375 125.085938 203.359375 125.15625 193.867188 125.625 C 194.21875 123.171875 194.464844 120.6875 194.472656 118.136719 C 194.957031 108.773438 191.8125 100.011719 186.699219 92.277344 C 187.933594 88.007812 189.382812 82.574219 189.746094 76.417969 C 190.160156 69.394531 189.554688 61.609375 183.917969 56.347656 L 182.472656 55 L 180.5 55 C 167.082031 55 157.898438 60.617188 152.285156 65.066406 C 144.175781 61.929688 135.0625 60 125 60 C 114.882812 60 105.675781 61.957031 97.238281 65.089844 C 91.625 60.632812 82.433594 55 69.003906 55 L 67.042969 55 L 65.597656 56.339844 C 60.105469 61.4375 59.597656 69.007812 59.941406 75.996094 C 60.242188 82.15625 61.609375 87.761719 62.824219 92.238281 C 57.621094 100.125 54.503906 109.109375 54.503906 118 C 54.503906 120.554688 54.738281 123.050781 55.089844 125.507812 C 46.058594 125.089844 38.011719 125.007812 31.621094 125.234375 C 26.921875 125.402344 23.226562 125.679688 20.027344 125.976562 C 20.027344 125.648438 20 125.328125 20 125 C 20 66.964844 66.964844 20 125 20 Z M 71.980469 65.652344 C 82.070312 66.609375 89.660156 71.113281 93.171875 74.238281 L 95.515625 76.308594 L 98.40625 75.125 C 106.316406 71.871094 115.136719 70 125 70 C 134.863281 70 143.6875 71.878906 150.996094 75.078125 L 153.925781 76.367188 L 156.316406 74.238281 C 159.832031 71.113281 167.4375 66.609375 177.527344 65.652344 C 178.871094 67.878906 180.039062 71.042969 179.753906 75.828125 C 179.417969 81.558594 177.886719 87.796875 176.726562 91.503906 L 175.976562 93.914062 L 177.46875 95.957031 C 182.417969 102.703125 184.941406 110.003906 184.511719 117.722656 L 184.5 117.859375 L 184.5 117.996094 C 184.5 130.476562 180.007812 140.460938 170.4375 147.859375 C 160.871094 155.261719 145.761719 160 124.5 160 C 103.242188 160 88.125 155.261719 78.554688 147.859375 C 68.984375 140.460938 64.5 130.476562 64.5 117.996094 C 64.5 110.675781 67.148438 102.617188 72.03125 95.957031 L 73.496094 93.964844 L 72.792969 91.589844 C 71.632812 87.652344 70.214844 81.269531 69.929688 75.507812 C 69.695312 70.714844 70.832031 67.683594 71.980469 65.652344 Z M 44.421875 130.105469 C 47.957031 130.152344 52.007812 130.34375 56.0625 130.546875 C 56.453125 132.105469 56.894531 133.640625 57.429688 135.136719 C 40.894531 135.484375 28.523438 137.148438 20.898438 138.574219 C 20.574219 136.074219 20.320312 133.550781 20.175781 130.996094 C 25.8125 130.460938 33.753906 129.972656 44.421875 130.105469 Z M 205.574219 130.183594 C 216.238281 130.050781 224.179688 130.539062 229.8125 131.074219 C 229.671875 133.589844 229.417969 136.078125 229.101562 138.542969 C 221.203125 137.097656 208.5 135.433594 191.53125 135.164062 C 192.058594 133.699219 192.5 132.191406 192.878906 130.664062 C 197.355469 130.425781 201.722656 130.234375 205.574219 130.183594 Z M 59.558594 140.097656 C 62.542969 146.078125 66.808594 151.414062 72.441406 155.773438 C 80.144531 161.726562 90.15625 165.890625 102.382812 168.117188 C 100.785156 169.757812 99.328125 171.5625 98.035156 173.46875 L 97.734375 173.203125 C 97.761719 173.171875 95.25 174.429688 91.496094 174.765625 C 87.738281 175.101562 83.109375 175 79.003906 175 C 72.878906 175 70.179688 172.105469 65.871094 166.835938 C 63.480469 163.617188 60.570312 161.011719 57.746094 159.035156 C 54.851562 157.007812 52.382812 155.578125 49.328125 155.070312 L 48.917969 155 L 48.496094 155 C 46.164062 155 43.90625 155.167969 41.796875 157.578125 C 40.742188 158.78125 40.015625 161.011719 40.488281 162.902344 C 40.960938 164.789062 42.152344 165.949219 43.222656 166.660156 C 50.054688 171.214844 51.265625 180.234375 55.546875 188.253906 C 59.546875 196.222656 68.179688 200 77.003906 200 L 90 200 L 90 224.015625 C 54.839844 211.601562 28.324219 181.023438 21.660156 143.515625 C 29.316406 142.074219 42.132812 140.339844 59.5625 140.097656 Z M 189.414062 140.136719 C 207.226562 140.289062 220.40625 142.019531 228.347656 143.484375 C 221.695312 181.007812 195.171875 211.597656 160 224.011719 L 160 197.996094 C 160 190.074219 157.398438 181.339844 152.871094 174.050781 C 151.496094 171.839844 149.878906 169.75 148.074219 167.871094 C 159.652344 165.585938 169.160156 161.492188 176.5625 155.769531 C 182.183594 151.425781 186.4375 146.101562 189.414062 140.136719 Z M 118.496094 170.496094 L 132.5 170.496094 C 136.5625 170.496094 140.902344 173.738281 144.375 179.324219 C 147.847656 184.914062 150 192.421875 150 197.996094 L 150 226.992188 C 141.988281 228.945312 133.617188 230 125 230 C 116.382812 230 108.011719 228.945312 100 226.992188 L 100 197.996094 C 100 192.542969 102.339844 185.054688 106.042969 179.441406 C 109.75 173.832031 114.433594 170.496094 118.496094 170.496094 Z M 61.542969 176.40625 C 65.871094 180.894531 71.113281 185 79.003906 185 C 82.898438 185 87.761719 185.140625 92.382812 184.726562 C 92.398438 184.726562 92.414062 184.71875 92.433594 184.714844 C 91.824219 186.46875 91.367188 188.226562 90.988281 190 L 77.003906 190 C 70.835938 190 66.480469 187.773438 64.472656 183.761719 L 64.433594 183.691406 L 64.40625 183.632812 C 63.582031 182.105469 62.503906 179.054688 61.542969 176.40625 Z M 61.542969 176.40625 "/>
</g>
</svg>
