<?xml version="1.0" encoding="UTF-8"?>
<svg xmlns="http://www.w3.org/2000/svg" viewBox="0 0 250 250" width="250px" height="250px">
<g id="surface30278280">
<path style=" stroke:none;fill-rule:evenodd;fill:rgb(100%,100%,100%);fill-opacity:1;" d="M 65 25 L 80 70 L 80 100 L 90 100 L 90 70 L 105 25 L 95 25 L 85 55 L 75 25 Z M 120 45 C 114.667969 45 112.050781 45.839844 108.789062 48.515625 C 105.664062 51.152344 104.804688 53.183594 105 60 L 105 85 C 105 89.980469 105.820312 93.261719 108.828125 96.171875 C 111.953125 99.082031 114.902344 100 120 100 C 125.332031 100 128.242188 99.082031 131.25 96.171875 C 134.375 93.378906 135 89.980469 135 85 L 135 60 C 135 55.585938 134.21875 51.40625 131.191406 48.613281 C 128.066406 45.742188 124.84375 45 120 45 Z M 145 45 L 145 90 C 145 94.863281 149.902344 100 155 100 C 160.097656 100 162.792969 97.441406 165 95 L 165 100 L 175 100 L 175 45 L 165 45 L 165 85 C 164.941406 88.417969 160.917969 90 160 90 C 158.964844 90 155 89.785156 155 85 L 155 45 Z M 120 55 C 121.503906 55 125 54.980469 125 60 L 125 85 C 125 89.84375 121.621094 90 120 90 C 118.496094 90 115 89.941406 115 85 L 115 60 C 115 55.917969 117.167969 55 120 55 Z M 127.285156 109.609375 C 102.070312 109.550781 76.875 109.609375 51.660156 110 C 48.261719 110.097656 44.863281 110.585938 41.621094 111.640625 C 39.003906 112.519531 36.503906 113.730469 34.238281 115.3125 C 31.5625 117.1875 29.257812 119.550781 27.460938 122.265625 C 26.191406 124.160156 25.175781 126.230469 24.414062 128.378906 C 23.164062 131.835938 22.597656 135.488281 22.5 139.140625 C 22.246094 155.546875 22.246094 171.953125 22.5 188.359375 C 22.597656 191.484375 23.007812 194.570312 23.828125 197.597656 C 25.410156 203.300781 28.4375 208.632812 32.851562 212.636719 C 34.121094 213.789062 35.488281 214.824219 36.953125 215.722656 C 38.75 216.835938 40.683594 217.753906 42.695312 218.4375 C 45.585938 219.414062 48.613281 219.902344 51.660156 220 C 102.207031 220.9375 152.792969 220.78125 203.339844 220 C 206.738281 219.902344 210.136719 219.414062 213.378906 218.359375 C 215.996094 217.480469 218.496094 216.269531 220.761719 214.6875 C 223.4375 212.8125 225.742188 210.449219 227.558594 207.734375 C 228.808594 205.839844 229.824219 203.769531 230.605469 201.621094 C 231.835938 198.164062 232.402344 194.511719 232.5 190.859375 C 232.753906 173.769531 232.578125 156.660156 232.5 139.589844 C 232.441406 135.898438 231.914062 132.207031 230.703125 128.730469 C 229.980469 126.5625 228.984375 124.472656 227.734375 122.558594 C 225.976562 119.824219 223.691406 117.421875 221.054688 115.527344 C 218.710938 113.828125 216.113281 112.539062 213.378906 111.640625 C 210 110.546875 206.464844 110.058594 202.910156 110 C 177.714844 109.882812 152.5 109.667969 127.285156 109.609375 Z M 165.46875 119.6875 C 178.027344 119.707031 190.585938 119.804688 203.125 120 C 205.117188 120.058594 207.109375 120.292969 209.042969 120.78125 C 212.148438 121.601562 215.078125 123.144531 217.324219 125.449219 C 218.085938 126.230469 218.75 127.070312 219.355469 127.988281 C 220.195312 129.296875 220.859375 130.722656 221.328125 132.207031 C 222.109375 134.511719 222.421875 136.933594 222.5 139.375 C 222.753906 156.464844 222.753906 173.554688 222.5 190.625 C 222.421875 193.066406 222.109375 195.488281 221.328125 197.792969 C 220.859375 199.277344 220.195312 200.703125 219.355469 202.011719 C 218.75 202.929688 218.085938 203.769531 217.324219 204.550781 C 215.078125 206.855469 212.148438 208.398438 209.042969 209.21875 C 207.109375 209.707031 205.117188 209.941406 203.125 210 C 152.832031 210.78125 102.519531 210.3125 52.207031 210 C 50.058594 209.960938 47.949219 209.648438 45.898438 208.964844 C 44.609375 208.515625 43.359375 207.929688 42.207031 207.207031 C 41.269531 206.640625 40.371094 205.976562 39.570312 205.234375 C 36.484375 202.421875 34.453125 198.652344 33.398438 194.667969 C 32.832031 192.539062 32.578125 190.332031 32.5 188.125 C 32.246094 171.992188 32.421875 155.839844 32.5 139.6875 C 32.539062 137.226562 32.851562 134.785156 33.59375 132.441406 C 34.0625 130.9375 34.707031 129.511719 35.546875 128.183594 C 36.152344 127.207031 36.875 126.269531 37.675781 125.449219 C 40 123.066406 43.007812 121.523438 46.210938 120.722656 C 48.28125 120.214844 50.410156 120.019531 52.519531 120 C 90.175781 120 127.832031 119.570312 165.46875 119.6875 Z M 55 130 L 55 140 L 65 140 L 65 200 L 75 200 L 75 140 L 85 140 L 85 130 Z M 130 130 L 130 200 L 140 200 L 140 195 C 141.933594 197.246094 144.746094 200.058594 150 200 C 153.105469 199.960938 155.507812 197.460938 157.109375 195.488281 C 158.75 193.515625 160 191.210938 160 187.5 L 160 157.5 C 160 153.183594 158.632812 150.253906 156.894531 148.046875 C 155.15625 145.859375 152.617188 144.6875 149.375 144.6875 C 147.734375 144.6875 146.113281 145.15625 144.511719 145.976562 C 142.871094 146.777344 141.152344 148.203125 140 150 L 140 130 Z M 90 145 L 90 190 C 90 193.125 91.347656 194.667969 92.5 196.171875 C 93.789062 197.8125 96.542969 200 98.964844 200 C 100.917969 200 103.027344 200.078125 105.097656 198.90625 C 107.1875 197.871094 108.144531 197.1875 110 195 L 110 200 L 120 200 L 120 145 L 110 145 L 110 185 C 109.101562 186.171875 109.0625 189.960938 105 190 C 101.347656 190.039062 100 186.152344 100 185 L 100 145 Z M 180.996094 145 C 176.25 145 171.855469 146.152344 169.511719 148.554688 C 166.601562 151.542969 165.019531 154.902344 165.019531 159.433594 L 165.019531 182.96875 C 165.019531 188.066406 166.40625 192.03125 169.0625 194.921875 C 171.71875 197.8125 175.429688 199.21875 180.175781 199.21875 C 185.371094 199.21875 189.335938 197.929688 191.875 195.136719 C 194.570312 192.480469 195 188.417969 195 182.96875 L 195 180 L 185 180 L 185 182.5 C 185 185.507812 184.707031 187.832031 184.003906 188.652344 C 183.320312 189.570312 182.03125 189.980469 180 190 C 178.164062 190.019531 176.777344 189.511719 176.09375 188.359375 C 175.371094 187.304688 175 185.527344 175 182.734375 L 175 175 L 195 175 L 195 159.433594 C 195 154.433594 194.179688 151.328125 191.601562 148.671875 C 189.082031 146.015625 185.742188 145 180.996094 145 Z M 145 152.5 C 147.753906 152.5 150 155 150 160 L 150 185.117188 C 150 187.871094 147.753906 190 145 190 C 142.246094 190 140.039062 188.945312 140 187.5 L 140 157.5 C 140.039062 154.980469 142.246094 152.5 145 152.5 Z M 180 155 C 182.753906 155 185 156.933594 185 160 L 185 165 L 175 165 L 175 160 C 175.039062 157.324219 177.246094 155 180 155 Z M 180 155 "/>
</g>
</svg>
